<svg version="1.2" baseProfile="tiny-ps" xmlns="http://www.w3.org/2000/svg" viewBox="0 0 1607 1356" width="1607" height="1356">
	<title>Ping_An_Insurance_logo-svg (1)-svg</title>
	<style>
		tspan { white-space:pre }
		.shp0 { fill: #f35e17 } 
		.shp1 { fill: #0a753d } 
	</style>
	<g id="layer1">
		<path id="path11662" fill-rule="evenodd" class="shp0" d="M1598.21 1289.04C1619.35 1329.35 1601.29 1353.59 1563.87 1353.59L1362.55 1353.59C1333.13 1353.59 1322.03 1345.84 1307.32 1317.73L803.24 310.52L299.1 1317.73C284.39 1345.84 273.29 1353.59 244.14 1353.59L42.82 1353.59C5.13 1353.59 -12.93 1329.35 8.48 1289.04L643.69 37.12C656.62 14.14 676.98 -0.58 702.26 -0.58L904.16 -0.58C929.44 -0.58 950.07 14.14 962.73 37.12L1598.21 1289.04Z" />
		<path id="path11664" class="shp1" d="M976.66 949.3L629.77 949.3C611.97 949.3 597.52 963.75 597.52 981.56L597.52 1321.08C597.52 1338.62 611.97 1353.33 629.77 1353.33L976.66 1353.33C994.46 1353.33 1008.9 1338.62 1008.9 1321.08L1008.9 981.56C1008.9 963.75 994.46 949.3 976.66 949.3Z" />
		<g id="g11718">
		</g>
	</g>
</svg>